<svg xmlns="http://www.w3.org/2000/svg" viewBox="0 0 85 85"><title>Asset 1</title><g id="Layer_2" data-name="Layer 2"><g id="Layer_1-2" data-name="Layer 1"><circle cx="42.5" cy="42.5" r="42.5" fill="#3a5a99"/><path d="M63.18,19.26H21.82a2.56,2.56,0,0,0-2.56,2.56V63.18a2.56,2.56,0,0,0,2.56,2.56H44.09v-18H38v-7h6.06V35.55c0-6,3.66-9.27,9-9.27a48.15,48.15,0,0,1,5.41.28v6.27H54.76c-2.92,0-3.48,1.39-3.48,3.42v4.48h6.95l-.91,7h-6v18H63.17a2.56,2.56,0,0,0,2.56-2.56V21.82A2.56,2.56,0,0,0,63.18,19.26Z" fill="#fff"/></g></g></svg>