<svg xmlns="http://www.w3.org/2000/svg" width="28.639" height="28.64" viewBox="0 0 28.639 28.64">
  <path id="google_plus_icon" d="M14.32.563a14.32,14.32,0,1,0,14.32,14.32A14.325,14.325,0,0,0,14.32.563Zm-4.082,21.48a7.16,7.16,0,0,1,0-14.32A6.916,6.916,0,0,1,15.03,9.587L13.09,11.47a4.062,4.062,0,0,0-2.852-1.1,4.51,4.51,0,0,0,0,9.019,3.881,3.881,0,0,0,4.048-3.078H10.237v-2.46h6.75a6.305,6.305,0,0,1,.11,1.2,6.605,6.605,0,0,1-6.86,7ZM23.529,15.91v2.05H21.48V15.91H19.43V13.86h2.05V11.81h2.05v2.05h2.032v2.05Z" transform="translate(0 -0.563)" fill="#f31e1e"/>
</svg>
