<svg xmlns="http://www.w3.org/2000/svg" height="512" version="1.1" viewBox="-16 0 512 512.00054" width="512">
<g id="surface1">
<path d="M 240.972656 163.765625 C 288.894531 163.765625 335.78125 153.289062 372.992188 134.261719 C 373.273438 134.121094 373.765625 133.882812 374.464844 133.554688 C 382.675781 129.714844 391.308594 124.820312 400.128906 119.0625 C 392.320312 57.054688 374.964844 19.984375 347.320312 6.042969 C 313.492188 -11.015625 276.234375 12.054688 253.972656 25.839844 C 249.695312 28.488281 244.125 31.9375 240.972656 33.457031 C 237.824219 31.9375 232.25 28.484375 227.976562 25.839844 C 205.714844 12.054688 168.457031 -11.019531 134.628906 6.042969 C 107.292969 19.828125 90.023438 56.234375 82.089844 116.980469 C 89.421875 122.359375 97.238281 127.605469 103.457031 131.355469 C 141.617188 152.253906 190.445312 163.765625 240.972656 163.765625 Z M 240.972656 163.765625 " style=" stroke:none;fill-rule:nonzero;fill:rgb(0%,0%,0%);fill-opacity:1;" />
<path d="M 77.261719 287.132812 C 121.234375 304.625 179.375 314.257812 240.972656 314.257812 C 302.574219 314.257812 360.714844 304.625 404.6875 287.132812 C 453.03125 267.898438 479.660156 240.597656 479.660156 210.265625 C 479.660156 193.535156 471.402344 168.878906 432.054688 146.421875 C 428.664062 144.488281 425.148438 142.65625 421.457031 140.898438 C 409.730469 148.886719 398.164062 155.605469 387.1875 160.742188 C 386.933594 160.863281 386.734375 160.957031 386.585938 161.023438 C 344.636719 182.457031 294.289062 193.785156 240.972656 193.785156 C 185.371094 193.785156 131.316406 180.910156 88.765625 157.53125 C 87.878906 157.042969 75.433594 149.398438 62.617188 139.902344 C 58.140625 141.960938 53.929688 144.117188 49.894531 146.421875 C 10.546875 168.882812 2.289062 193.535156 2.289062 210.265625 C 2.289062 240.601562 28.917969 267.898438 77.261719 287.132812 Z M 77.261719 287.132812 " style=" stroke:none;fill-rule:nonzero;fill:rgb(0%,0%,0%);fill-opacity:1;" />
<path d="M 464.652344 384.058594 L 446.773438 384.058594 C 432.839844 350.582031 399.789062 326.984375 361.328125 326.984375 C 322.65625 326.984375 289.460938 350.835938 275.660156 384.597656 C 253.214844 373.085938 226.277344 373.128906 203.839844 384.863281 C 190.105469 350.960938 156.835938 326.984375 118.0625 326.984375 C 79.601562 326.984375 46.550781 350.582031 32.617188 384.058594 L 15.007812 384.058594 C 6.71875 384.058594 0 390.777344 0 399.066406 C 0 407.355469 6.71875 414.074219 15.007812 414.074219 L 25.71875 414.074219 C 25.613281 415.867188 25.554688 417.671875 25.554688 419.492188 C 25.554688 470.5 67.054688 512 118.0625 512 C 169.074219 512 210.570312 470.5 210.570312 419.492188 C 210.570312 418.367188 210.542969 417.25 210.503906 416.136719 C 227.609375 402.75 251.710938 402.65625 268.90625 415.65625 C 268.851562 416.929688 268.820312 418.207031 268.820312 419.492188 C 268.820312 470.5 310.316406 512 361.328125 512 C 412.335938 512 453.832031 470.5 453.832031 419.492188 C 453.832031 417.671875 453.773438 415.867188 453.671875 414.074219 L 464.652344 414.074219 C 472.941406 414.074219 479.660156 407.355469 479.660156 399.066406 C 479.660156 390.777344 472.941406 384.058594 464.652344 384.058594 Z M 464.652344 384.058594 " style=" stroke:none;fill-rule:nonzero;fill:rgb(0%,0%,0%);fill-opacity:1;" />
</g>
</svg>