<svg xmlns="http://www.w3.org/2000/svg" viewBox="0 0 162.17 155.31"><title>Asset 5</title><g id="Layer_2" data-name="Layer 2"><g id="Layer_1-2" data-name="Layer 1"><path d="M162.17,155.31H70.53L115,76.88ZM85,146.76h62L115.15,94.17Z"/><path d="M111.54,107.68h8.07v17h-8.07Z"/><path d="M119.74,134.16v8.18h-8.22v-8.18Z"/><path d="M147.7,135.39l-13.18-19.18a137.47,137.47,0,0,0-36.7-65.69A137.44,137.44,0,0,0,0,10V0A147.39,147.39,0,0,1,104.9,43.45,147.63,147.63,0,0,1,147.7,135.39Z"/><path d="M99.26,116.49l-7.11,12.15A93.44,93.44,0,0,0,66.61,81.73,93.55,93.55,0,0,0,0,54.14v-10A103.48,103.48,0,0,1,73.68,74.66,103.61,103.61,0,0,1,99.26,116.49Z"/><path d="M59.7,148.34h-10A49.37,49.37,0,0,0,35.14,113.2,49.37,49.37,0,0,0,0,98.64v-10a59.27,59.27,0,0,1,42.21,17.49A59.27,59.27,0,0,1,59.7,148.34Z"/><path d="M22,148.34H0v-22a21.84,21.84,0,0,1,15.56,6.45A21.85,21.85,0,0,1,22,148.34Z"/></g></g></svg>