<svg xmlns="http://www.w3.org/2000/svg" viewBox="0 0 139.15 149.53"><title>Asset 4</title><g id="Layer_2" data-name="Layer 2"><g id="Layer_1-2" data-name="Layer 1"><path d="M0,0H70.27L96.74,25.61s0,5.09-.05,7c-.21,15.22-.42,45.35-.42,45.35l42.88,71.62H47.59l9.58-17.18H0ZM8.56,123.2h54L88.2,78.06V34.41H61.4V8.5H8.56ZM124.12,141,92.36,88.08,62.34,141ZM70.33,25.58l13.06,0L70.27,13.27Z"/><rect x="22.6" y="70.93" width="52.19" height="8.28"/><path d="M22.57,61.51V53.57H74.82v7.94Z"/><path d="M57.17,88.77V96.9H22.57V88.77Z"/><path d="M88.67,101.91h8.07v17H88.67Z"/><path d="M96.87,128.38v8.18H88.66v-8.18Z"/></g></g></svg>