<?xml version="1.0" encoding="utf-8"?>
<!-- Generator: Adobe Illustrator 24.0.0, SVG Export Plug-In . SVG Version: 6.00 Build 0)  -->
<svg version="1.1" id="Layer_1" xmlns="http://www.w3.org/2000/svg" xmlns:xlink="http://www.w3.org/1999/xlink" x="0px" y="0px"
	 viewBox="0 0 280.55 236.78" style="enable-background:new 0 0 280.55 236.78;" xml:space="preserve">
<style type="text/css">
	.st0{fill:#F1F2F2;}
	.st1{fill:#20273F;}
	.st2{fill:#EF5D2F;}
</style>
<g>
	<rect x="0" class="st0" width="280.55" height="236.78"/>
</g>
<g>
	<g>
		<g>
			<g>
				<path class="st1" d="M131.23,106.64h-14.3l-2.93,8.05h-7.25l13.51-35.21h7.95l13.41,35.21h-7.45L131.23,106.64z M119.21,100.39
					h9.73l-4.87-13.31L119.21,100.39z"/>
			</g>
		</g>
		<g>
			<g>
				<path class="st2" d="M148.91,78.14c2.28,0,4.07,1.84,4.07,4.12c0,2.19-1.79,4.02-4.07,4.02c-2.23,0-4.07-1.84-4.07-4.02
					C144.83,79.98,146.67,78.14,148.91,78.14z M145.63,114.69V90.26h6.61v24.43H145.63z"/>
			</g>
		</g>
		<g>
			<g>
				<path class="st2" d="M167.43,90.26h4.92v5.86h-4.92v10.23c0,2.14,0.99,2.83,2.88,2.83c0.79,0,1.69-0.1,2.04-0.2v5.46
					c-0.6,0.25-1.79,0.6-3.72,0.6c-4.77,0-7.75-2.83-7.75-7.55V96.12h-4.42v-5.86h1.24c2.58,0,3.77-1.69,3.77-3.87v-3.43h5.96V90.26
					z"/>
			</g>
		</g>
	</g>
	<g>
		<path class="st2" d="M94.68,147.96c-0.22,0.11-0.4,0.09-0.52-0.13c0.09-0.25,0.11-0.49,0.22-0.7c0.2-0.38,0.45-0.72,0.67-1.08
			c1.55-2.67,3.1-5.36,4.67-8.01c0.49-0.85,1.1-1.62,1.64-2.42l0.85-1.41c-0.79-0.07-1.35-0.45-1.91-0.88
			c-0.72-0.52-0.9-1.12-0.67-1.98c0.18-0.65,0.52-1.19,0.92-1.71c2.29-2.92,5-5.34,8.21-7.21c0.36-0.2,0.63-0.49,0.83-0.83
			l3.14-4.98c0.36-0.56,0.76-1.1,1.17-1.71c0.47,0.4,0.99,0.61,0.97,1.32l-2.67,4.26c1.82-0.54,3.57-0.97,5.39-1.12
			c0.31,0.36-0.13,0.47-0.18,0.76h0.88c0.16,0.47,0.04,0.81-0.29,1.1c-0.9,0.18-1.79,0.36-2.72,0.52c-0.81,0.13-1.57,0.36-2.29,0.7
			c-0.7,0.31-1.39,0.63-2.09,0.92c-0.52,0.22-0.9,0.58-1.19,1.08c-1.3,2.18-2.6,4.33-3.93,6.51c-0.22,0.36-0.43,0.74-0.7,1.19
			c0.97-0.02,1.75-0.43,2.74-0.61c-0.18-0.09-0.27-0.11-0.36-0.16c1.48-0.54,2.94-1.05,4.35-1.62c1.39-0.56,2.74-1.23,4.13-1.75
			c0.74-0.27,1.35-0.67,2-1.12c0.76-0.52,1.59-0.92,2.38-1.41c2.42-1.48,4.67-3.19,6.58-5.32c0.74-0.83,1.37-1.75,1.84-2.76
			c0.38-0.88,0.58-1.77,0.43-2.72c-0.16-0.92-0.61-1.59-1.5-1.93c-0.85-0.31-1.71-0.54-2.58-0.56c-1.08-0.02-2.15,0.04-3.23,0.04
			c-0.63,0-1.23,0.2-1.89,0.09c-0.27-0.04-0.61,0.11-0.9,0.2c-2.11,0.61-4.22,1.19-6.33,1.82c-0.72,0.22-1.39,0.56-2.11,0.85
			c-0.22,0.07-0.47,0.11-0.74,0.07c0.27-0.13,0.54-0.27,0.85-0.4c-0.13-0.04-0.25-0.11-0.34-0.16c-1.41,0.79-2.78,1.57-4.2,2.33
			c-0.85,0.47-1.75,0.88-2.63,1.35c-0.79,0.4-1.55,0.83-2.22,1.39c-0.45,0.36-0.94,0.63-1.41,0.94c-1.14,0.76-2.33,1.44-3.41,2.29
			c-1.08,0.85-2.06,1.84-2.94,2.94c-0.29,0.38-0.54,0.79-0.79,1.21c-0.11,0.18-0.27,0.45-0.2,0.63c0.11,0.27-0.2,0.29-0.16,0.52
			c0.04,0.36,0.09,0.72,0.31,1.01c0.16,0.18,0.4,0.29,0.29,0.58c-0.02,0.02,0.02,0.07,0.04,0.09c0.11,0.16,0.29,0.29,0.29,0.45
			c0.02,0.16-0.11,0.34-0.22,0.54l-0.67-0.61c-0.16,0.07-0.34,0.13-0.52,0.22c-0.07-0.04-0.16-0.09-0.25-0.16
			c-0.81-0.65-1.08-1.46-0.83-2.47c0.34-1.41,1.12-2.58,2.02-3.68c0.56-0.72,1.19-1.37,1.95-1.86c0.45-0.29,0.88-0.61,1.28-0.96
			c0.36-0.34,0.63-0.79,1.05-1.08c0.61-0.43,1.14-0.9,1.77-1.32c2.13-1.46,4.38-2.76,6.76-3.79c0.81-0.34,1.62-0.74,2.4-1.1
			c0.18-0.07,0.36-0.25,0.58-0.02c0.02,0.02,0.18-0.04,0.29-0.07c0.22-0.09,0.47-0.18,0.72-0.25c0.65-0.18,1.32-0.29,1.98-0.52
			c0.83-0.31,1.66-0.67,2.47-1.1c-0.92,0.09-1.77,0.52-2.69,0.61c1.62-0.7,3.28-1.19,4.89-1.62c0.18,0.07,0.31,0.2,0.43,0.18
			c0.74-0.18,1.5-0.29,2.2-0.61c1.39-0.58,2.83-0.58,4.26-0.67c1.26-0.07,2.47,0.09,3.61,0.65c0.45,0.22,0.97,0.34,1.44,0.52
			c0.02-0.09,0.02-0.13,0.04-0.18c0.02,0,0.07,0,0.11,0.02c0.7,0.47,1.28,1.08,1.75,1.77c0.88,1.32,0.9,2.67,0.27,4.08
			c-0.18,0.4-0.38,0.79-0.49,1.21c-0.4,1.32-1.14,2.42-2.04,3.46c-1.64,1.91-3.55,3.48-5.59,4.89c-3.55,2.45-7.38,4.33-11.4,5.84
			c-1.1,0.4-2.22,0.74-3.34,1.12c-0.25,0.07-0.49,0.11-0.76,0.18l-0.4-0.34c-0.61,0.52-1.35,0.74-2.11,0.81
			c-0.36,0.02-0.61,0.2-0.83,0.58v-0.38c-0.22-0.13-0.36,0-0.43,0.16c-0.18,0.38-0.34,0.76-0.49,1.14c-0.07,0.2-0.16,0.4-0.22,0.61
			c-0.61,1.8-1.68,3.32-2.6,4.96c-0.61,1.08-1.28,2.13-1.91,3.21c-0.58,0.99-1.12,2.02-1.71,3.01c-0.11,0.22-0.25,0.45-0.4,0.65
			C95.37,148.54,94.97,148.47,94.68,147.96z M103.72,131.82c0-0.56,0.29-0.99,0.54-1.46l2.11-3.64l0.31-0.54
			c-0.02-0.02-0.07-0.04-0.09-0.09c-0.58,0.45-1.19,0.88-1.79,1.3c-0.04-0.02-0.09-0.07-0.22-0.16c-1.21,1.05-2.29,2.2-3.17,3.5
			c-0.22,0.36-0.38,0.76-0.25,1.28c0.72,0.49,1.55,0.49,2.4,0.31C103.63,132.13,103.72,131.98,103.72,131.82z M103.7,117.18
			c-0.7,0.36-1.28,0.65-1.88,0.94C102.64,118.15,102.96,117.99,103.7,117.18z M102.19,135.32c0.38-0.22,0.52-0.65,0.7-1.01
			C102.55,134.56,102.31,134.89,102.19,135.32c-0.2,0.11-0.27,0.31-0.22,0.56C102.04,135.7,102.1,135.5,102.19,135.32z
			 M107.63,124.34c0.31-0.29,0.54-0.7,0.81-1.05c-1.82,1.05-3.43,2.31-5.05,3.73h0.49c-0.04,0.11-0.09,0.18-0.11,0.25
			C105.16,126.41,106.41,125.4,107.63,124.34z M106.91,132.34c-0.11-0.02-0.2-0.07-0.29-0.02c-0.61,0.16-1.21,0.31-1.77,0.54
			c-0.18,0.07-0.43,0.27-0.4,0.61C105.36,133.28,106.08,132.67,106.91,132.34z M111.49,119.54c-0.13,0.29-0.22,0.45-0.31,0.61
			C111.38,120.03,111.55,119.92,111.49,119.54z M113.04,117.27c-0.45,0.54-0.83,1.12-1.21,1.71c-0.04,0.04,0,0.16,0,0.25
			C112.27,118.58,112.77,117.99,113.04,117.27z"/>
		<path class="st2" d="M123.05,134.76c-0.09,0.11-0.16,0.2-0.27,0.38c-0.07-0.18-0.16-0.29-0.13-0.38c0.09-0.22,0.2-0.43,0.31-0.65
			c-0.11-0.07-0.2-0.11-0.34-0.16c0.22-0.29,0.43-0.56,0.61-0.85c0.56-0.92,1.08-1.86,1.64-2.81c0.38-0.63,0.81-1.26,1.21-1.89
			c0.04-0.07,0.09-0.13,0.11-0.22c0.22-0.54,0.43-1.1,0.67-1.64c0.74-1.77,1.5-3.57,2.27-5.34c0.34-0.83,0.7-1.64,1.03-2.47
			c0.25-0.61,0.45-1.21,0.63-1.82c0.47-1.57,1.12-3.08,1.44-4.69c0.07-0.27,0.11-0.56,0.16-0.83c0.02-0.11,0.04-0.22,0-0.29
			c-0.43-0.72,0-1.26,0.31-1.86c0.22,0.16,0.4,0.25,0.56,0.36c0.47,0.29,0.72,0.72,0.76,1.28c0.04,0.9-0.13,1.8-0.43,2.63
			c-0.88,2.54-1.77,5.05-2.69,7.56c-0.63,1.68-1.3,3.34-2,4.98c-0.72,1.66-1.55,3.25-2.47,4.8c-0.7,1.17-1.35,2.36-2.04,3.55
			c-0.09,0.16-0.2,0.29-0.36,0.43c0.09-0.47,0.45-0.79,0.67-1.19c0.2-0.43,0.49-0.83,0.72-1.26c0.22-0.38,0.4-0.81,0.67-1.3
			c-0.18,0.11-0.25,0.16-0.43,0.25c0.11-0.31,0.18-0.54,0.29-0.76l1.84-3.59c0.09-0.13,0.13-0.27,0.22-0.43
			c-0.29,0-0.31,0.25-0.4,0.38c-0.61,1.19-1.19,2.38-1.84,3.57c-0.83,1.55-1.68,3.08-2.58,4.67
			C123.14,134.98,123.11,134.89,123.05,134.76z M130.92,120.53l-0.09-0.02c-0.02,0.02-0.02,0.07-0.04,0.09
			c0.02,0.02,0.07,0.04,0.09,0.02C130.9,120.6,130.9,120.55,130.92,120.53z"/>
		<path class="st2" d="M130.43,130.99c-0.18,0.22-0.29,0.52-0.52,0.9c0.54-0.29,0.96-0.54,1.37-0.85c1.46-1.1,2.92-2.2,4.4-3.3
			l1.1-0.88c0.13-0.09,0.29-0.13,0.45-0.22l0.34,0.76c0.29-0.07,0.52-0.38,0.85-0.16c0.4,0.56,0.2,1.12,0,1.68
			c-0.13,0.36-0.31,0.7-0.49,1.03l-1.88,3.79c-0.07,0.13-0.16,0.27-0.25,0.43c-0.2-0.25-0.04-0.47,0.02-0.67
			c0.11-0.27,0.22-0.54,0.36-0.81c0.29-0.4,0.54-0.83,0.7-1.3c-0.31,0.38-0.72,0.74-0.7,1.3c-0.29,0.13-0.38,0.43-0.52,0.7
			c-0.16,0.34-0.31,0.67-0.52,1.08l-0.36-0.4c-0.07,0.04-0.16,0.09-0.29,0.16c-0.09-0.09-0.18-0.18-0.29-0.27
			c0.11-0.4,0.36-0.74,0.25-1.19c-0.02-0.11,0.09-0.25,0.16-0.38l1.05-2.07c0.04-0.11,0.09-0.25,0.2-0.49l-1.93,1.37
			c-0.07,0-0.13,0-0.2,0.02c-0.22-0.07-0.27-0.04-0.45,0.25c0.09-0.02,0.22-0.04,0.34-0.04c0.18,0.07,0.29-0.02,0.38-0.16
			c0.2-0.09,0.4-0.16,0.72-0.27c-0.99,0.88-2,1.53-3.01,2.16c-0.54,0.34-1.1,0.61-1.66,0.9c-0.7,0.36-1.39,0.25-2.07-0.02
			c-0.34-0.13-0.47-0.4-0.45-0.79c0.02-0.79,0.27-1.5,0.67-2.13c0.49-0.72,0.99-1.41,1.55-2.06c1.19-1.37,2.51-2.6,4.02-3.64
			c0.54-0.36,1.14-0.61,1.77-0.76c0.27-0.07,0.49-0.25,0.76-0.38c0.27-0.13,0.54-0.29,0.83-0.36c0.47-0.13,0.79,0.18,1.08,0.52
			c-0.09-0.02-0.18-0.07-0.31-0.11c-0.02,0.11-0.07,0.22-0.09,0.38c0.2,0.02,0.4,0.07,0.58,0.09c0.45,0.45,0.58,0.94,0.31,1.55
			c-0.49,0.22-0.54,0.2-0.83-0.22c-0.09,0.04-0.2,0.09-0.31,0.16c-0.07-0.07-0.16-0.11-0.22-0.18c-0.04-0.07-0.07-0.13-0.13-0.27
			c-0.29,0.13-0.58,0.22-0.83,0.38c-0.85,0.54-1.73,1.1-2.56,1.66c-0.47,0.29-0.9,0.65-1.35,0.96
			C131.64,129.4,131.08,130.23,130.43,130.99z M129.6,133.01c-0.13,0.04-0.27,0.07-0.4,0.09
			C129.55,133.23,129.67,133.19,129.6,133.01z M130.03,132.65c0.13,0.04,0.22,0.09,0.31,0.11c0.04-0.09,0.09-0.18,0.2-0.36
			L130.03,132.65z M133.03,131.57c0.02,0.02,0.04,0.04,0.04,0.09l0.13-0.16L133.03,131.57z"/>
		<path class="st2" d="M142.68,134.67l-0.22,0.16c-0.4-0.11-0.38-0.43-0.38-0.74c0.02-0.96-0.2-1.91-0.7-2.74
			c-0.34-0.58-0.76-1.1-1.17-1.66c-0.18-0.25-0.38-0.47-0.58-0.7c-0.56-0.67-0.58-1.39-0.16-2.16c0.02-0.02,0.07-0.07,0.07-0.09
			c0.13-0.85,0.81-1.23,1.46-1.53c0.96-0.43,2-0.74,2.99-1.1c0.04-0.02,0.11,0,0.22,0c-0.47,0.49-1.1,0.65-1.57,1.06
			c0.54-0.18,1.1-0.36,1.64-0.56c0.09-0.02,0.13-0.09,0.22-0.11c0.9-0.18,1.28-0.88,1.59-1.64l0.25-0.27
			c-0.02-0.02-0.04-0.02-0.04-0.04c-0.07,0.02-0.13,0.07-0.2,0.09c0.13-0.31,0.25-0.65,0.4-0.94c1.1-2.04,2.2-4.08,3.32-6.13
			c0.11-0.2,0.25-0.36,0.4-0.61c0.13,0.2,0.25,0.34,0.36,0.52c0.11-0.11,0.22-0.25,0.34-0.38c0.36,0.11,0.65,0.34,0.63,0.74
			c-0.02,0.29-0.13,0.61-0.27,0.85c-0.43,0.74-0.94,1.46-1.35,2.2c-0.7,1.26-1.33,2.56-2,3.84c-0.09,0.18-0.16,0.38-0.27,0.61
			c0.38,0.04,0.72,0.09,1.05,0.16c1.03,0.13,1.71,0.79,2.29,1.59c0.04,0.07,0.07,0.18,0.07,0.27c0,0.11-0.04,0.22-0.04,0.34
			s0.04,0.2,0.09,0.31c-0.25,0.25-0.49,0.31-0.76,0.07c-0.11-0.09-0.2-0.13-0.36-0.09c-0.11,0.02-0.29-0.13-0.38-0.27
			c-0.22-0.36-0.54-0.47-0.94-0.43c-0.65,0.04-1.32,0.11-2.04,0.18c-0.43,1.08-0.83,2.11-1.21,3.14c-0.65,1.82-1.28,3.64-1.59,5.52
			c-0.02,0.18-0.09,0.36-0.16,0.54c-0.18,0.43-0.47,0.49-0.83,0.18C142.77,134.8,142.73,134.74,142.68,134.67z M139.95,127.6
			c-0.29,0.29-0.07,0.49,0.09,0.72C140.1,128.09,140.19,127.85,139.95,127.6z M144.48,126.14c-1.5,0.25-3.14,1.05-3.55,1.75
			c0.67,0.92,1.37,1.84,2.06,2.78L144.48,126.14z"/>
		<path class="st2" d="M150.81,133.86c-0.16-0.65-0.31-1.3-0.61-1.91c-0.09-0.2-0.09-0.43-0.34-0.56c-0.07-0.02-0.09-0.11-0.11-0.2
			c-0.22-0.88-0.13-1.73,0.29-2.54c0.07-0.13,0.18-0.22,0.22-0.36c0.45-1.01,1.26-1.57,2.22-2.02c0.2-0.09,0.45-0.18,0.65-0.29
			c0.22-0.13,0.43-0.31,0.72-0.18c0.07,0.02,0.2-0.04,0.29-0.09c0.36-0.13,0.72-0.27,1.08-0.43c0.13-0.04,0.27-0.13,0.34-0.25
			c0.18-0.25,0.2-0.54,0.45-0.79c0.22-0.2,0.27-0.58,0.38-0.9c0.18-0.43,0.31-0.88,0.52-1.3c1.01-2.2,2.09-4.38,3.39-6.44
			c0.58-0.9,1.1-1.86,1.73-2.74c0.58-0.81,1.26-1.55,1.93-2.29c0.61-0.65,1.35-1.08,2.27-1.19c0.47-0.04,0.92-0.16,1.37,0.02
			c0.13,0.07,0.29,0.11,0.38,0.2c0.34,0.38,0.7,0.74,0.97,1.15c0.16,0.22,0.22,0.54,0.25,0.81c0.11,1.05-0.2,2.02-0.61,2.96
			c-0.61,1.37-1.37,2.65-2.24,3.86c-0.22,0.29-0.49,0.54-0.72,0.83c-1.1,1.39-2.29,2.69-3.66,3.84c-0.11,0.07-0.2,0.16-0.29,0.22
			c-0.02,0.02-0.07,0.02-0.09,0.02l-0.07-0.54c0.63-0.67,1.32-1.37,1.98-2.09c0.4-0.45,0.72-0.99,1.12-1.55
			c-0.58,0.2-0.79,0.65-1.03,0.99c-0.76,0.99-1.68,1.82-2.58,2.69c-0.16,0.16-0.34,0.07-0.54,0.16c-0.07-0.16-0.11-0.31-0.2-0.52
			h0.31l0.07-0.74c0.43-0.4,0.92-0.81,1.37-1.28c0.92-0.92,1.86-1.84,2.72-2.83c1.14-1.32,1.93-2.87,2.6-4.47
			c0.29-0.67,0.29-1.37,0.16-2.09c-0.47-0.13-0.85,0.02-1.19,0.25c-0.47,0.34-0.99,0.67-1.37,1.1c-0.72,0.76-1.35,1.57-2.02,2.38
			c-0.25,0.29-0.47,0.61-0.76,1.01c0.02-0.22,0.04-0.36,0.04-0.47c-0.67,0.61-4.06,7.07-4.47,8.48c0.11,0.04,0.22,0.07,0.36,0.11
			c-0.16,0-0.29,0.02-0.45,0.04c-0.07,0.13-0.11,0.27-0.18,0.4c0.07,0.02,0.11,0.04,0.13,0.04c0.2-0.04,0.4-0.11,0.58-0.16
			c0.7-0.22,1.26,0.52,0.97,1.08c-0.02,0.07-0.04,0.16-0.11,0.29c0.18,0.09,0.36,0.2,0.58,0.34c-0.02,0.09-0.09,0.25-0.16,0.47
			c-0.34-0.38-0.54-0.76-0.74-1.19l-0.09,0.4l-0.25-0.43c-0.09,0-0.22-0.02-0.38-0.02c0.13,0.31,0.25,0.61,0.38,0.9
			c-0.04,0.02-0.09,0.04-0.11,0.07c-0.13-0.18-0.25-0.36-0.36-0.54c-0.65-0.13-0.92-0.02-1.26,0.52c-0.04-0.07-0.07-0.16-0.13-0.29
			c-0.45,0.7-0.65,1.46-0.99,2.2c0.13-0.09,0.25-0.16,0.45-0.27l0.2,0.38c-0.65,1.66-1.19,3.41-2.04,5.05
			c-0.45,0.88-1.1,1.53-1.89,2C151.39,135.1,150.99,134.6,150.81,133.86z M154.85,126.66c-0.58,0.31-1.1,0.58-1.62,0.88
			c-0.02,0,0,0.07,0,0.09c0.11,0,0.22,0.02,0.4,0.02c-0.52,0.43-0.99,0.79-1.44,1.17c-0.2,0.18-0.43,0.38-0.58,0.61
			c-0.36,0.52-0.47,1.08-0.16,1.66c0.11,0.18,0.13,0.38,0.2,0.58c0.18,0.45,0.36,0.9,0.56,1.44
			C152.63,132.51,154.42,128.09,154.85,126.66z M162.59,114.76l-0.09-0.09l-0.13,0.31l0.07,0.04L162.59,114.76z M164.01,112.83
			c0.02-0.04,0.02-0.11,0.07-0.31c-0.16,0.18-0.22,0.27-0.27,0.34l0.07,0.07C163.92,112.9,163.96,112.87,164.01,112.83z
			 M165.58,111.15c0.25-0.2,0.49-0.38,0.76-0.56c-0.34-0.09-0.56,0.11-0.76,0.29c-0.25,0.25-0.58,0.43-0.7,0.81
			C165.15,111.55,165.35,111.33,165.58,111.15z M167.37,114.31c-0.47,0.49-0.92,1.3-0.92,1.71
			C166.83,115.5,167.13,114.98,167.37,114.31z"/>
		<path class="st2" d="M158.87,131.77c-0.02-0.34,0-0.7,0.07-1.01c0.27-1.26,0.74-2.42,1.57-3.41c0.4-0.47,0.74-0.96,1.17-1.41
			c0.27-0.27,0.63-0.52,0.97-0.7c0.27-0.16,0.45-0.34,0.58-0.61c0.29-0.65,0.92-0.85,1.53-0.92c0.38-0.07,0.61,0.27,0.72,0.52
			c0.27,0.16,0.49,0.22,0.58,0.36c0.16,0.27,0.36,0.61,0.2,0.92c-0.18,0.36-0.09,0.65-0.02,1.01c0.22,0.85,0.27,1.73,0.18,2.6
			c-0.07,0.72-0.38,1.32-0.74,1.93c-0.47,0.81-1.19,1.5-2.02,1.98c-0.56-0.13-1.1-0.18-1.64,0.04c-0.25,0.11-0.52,0.22-0.79,0.29
			C159.85,133.77,158.96,132.67,158.87,131.77z M161.36,128.45c0.38-0.29,0.74-0.58,1.01-1.01c0.18-0.27,0.45-0.47,0.7-0.7
			c0.25-0.22,0.52-0.45,0.76-0.7c0.2-0.2,0.38-0.45,0.61-0.74l-0.18-0.25c-0.34,0.22-0.65,0.43-0.96,0.65
			c-0.81,0.54-1.35,1.37-2.11,2c-0.67,0.56-0.94,1.44-1.3,2.22C160.23,129.31,160.8,128.88,161.36,128.45z M162.28,132.27
			c0.58-0.11,1.03-0.43,1.39-0.9c0.4-0.54,0.96-0.94,1.23-1.57c0.02-0.04,0.16-0.02,0.27-0.02c0.4-0.54,0.29-1.21,0.25-1.95
			c-0.18,0.52-0.34,0.96-0.47,1.41c0.29-1.14,0.22-2.25-0.2-3.46l-0.09,0.43c-0.04-0.07-0.09-0.13-0.11-0.2h-0.11
			c-0.81,0.52-1.53,1.21-2.22,1.91c-0.54,0.52-0.9,1.14-1.28,1.77c-0.4,0.63-0.63,1.35-0.45,2.16c0.38,0.07,0.74,0.11,1.1,0.18
			c0,0.02,0,0.04-0.02,0.07h-0.99c0.2,0.38,0.45,0.52,0.83,0.4C161.69,132.42,161.96,132.31,162.28,132.27z"/>
		<path class="st2" d="M175.61,126.36c0,0.52-0.4,1.08-0.99,1.26c-0.09-0.13-0.2-0.27-0.29-0.43c-0.04,0-0.07-0.02-0.11-0.02
			c-0.2-0.02-0.43,0.2-0.63-0.02c-0.02-0.02-0.18,0.04-0.27,0.09c-0.31,0.13-0.63,0.29-0.94,0.47c-0.72,0.38-1.32,0.9-1.91,1.44
			v-0.02c-0.2,0.29-0.38,0.61-0.63,0.88c-0.31,0.4-0.7,0.74-1.03,1.12c-0.22,0.27-0.43,0.56-0.56,0.85
			c-0.27,0.61-0.63,1.14-0.97,1.73l-0.81-0.45c-0.09-0.34-0.2-0.72-0.29-1.12c0.94-2.56,2.31-4.96,3.1-7.63l0.7,0.34
			c-0.02,0.13-0.02,0.29-0.04,0.47c0.2,0.04,0.4,0.07,0.67,0.11c-0.11,0.49-0.22,0.94-0.36,1.46c0.16-0.11,0.29-0.2,0.4-0.29
			c0.81-0.7,1.75-1.19,2.81-1.39c0.27-0.07,0.54-0.09,0.79-0.07c0.13,0,0.27,0.09,0.36,0.2c0.16,0.16,0.27,0.38,0.43,0.56
			c0.07,0.07,0.22,0.04,0.34,0.09C175.54,126.05,175.61,126.16,175.61,126.36z M170.47,129.13c-0.02-0.07-0.04-0.11-0.07-0.22
			c-0.61,0.36-1.03,0.88-1.48,1.37c-0.09,0.09-0.09,0.27-0.16,0.56c0.52-0.56,0.9-1.03,1.32-1.48
			C170.18,129.26,170.33,129.22,170.47,129.13z M174.53,125.53c-0.34-0.27-0.58-0.16-0.83-0.11c-0.94,0.22-1.82,0.56-2.67,1.23
			C172.24,126.25,173.34,125.92,174.53,125.53z"/>
		<path class="st2" d="M186.79,133.41l-0.34,0.13c-0.09-0.09-0.16-0.18-0.27-0.31l1.01-3.17c0.25-0.74,0.49-1.48,0.72-2.22
			l0.16-0.65c-0.4,0.07-0.7,0.22-0.94,0.43c-0.7,0.52-1.37,1.1-2.04,1.64c-0.58,0.45-1.17,0.9-1.77,1.3
			c-0.25,0.18-0.58,0.34-0.83,0.29c-0.34-0.07-0.65-0.31-0.94-0.52c-0.22-0.13-0.18-0.38-0.11-0.61c0.2-0.72,0.38-1.46,0.58-2.18
			c0.02-0.07,0.02-0.16,0.04-0.34c-0.56,0.36-1.03,0.65-1.5,0.96c-1.3,0.92-2.51,1.98-3.59,3.14c-0.09,0.11-0.18,0.22-0.29,0.31
			c-0.36,0.29-0.74,0.16-0.85-0.31c-0.02-0.16-0.07-0.31-0.09-0.47l-0.36-0.13c0.02-0.09,0.02-0.18,0.07-0.25
			c0.54-1.01,1.1-2,1.62-3.01c0.47-0.92,0.92-1.86,1.39-2.78c0.07-0.16,0.18-0.29,0.29-0.45c0.72,0.58,1.41,1.1,0.7,2.2
			c0.07-0.02,0.11-0.02,0.18-0.02l0.34-0.18c0.43-0.27,0.85-0.56,1.3-0.81c0.29-0.16,0.58-0.27,0.9-0.36
			c0.27-0.07,0.47,0.04,0.72,0.2c0.74,0.49,1.05,1.1,0.83,1.95c-0.04,0.16,0,0.31,0.02,0.56l0.38-0.22c0.88-0.61,1.73-1.23,2.6-1.84
			c0.34-0.22,0.74-0.43,1.12-0.58c0.4-0.18,0.81-0.11,1.12,0.22c0.07,0.07,0.16,0.16,0.22,0.2c0.56,0.4,0.61,0.94,0.54,1.57
			c-0.13,1.3-0.52,2.56-0.94,3.79c-0.11,0.29-0.25,0.58-0.38,0.9l-0.34,0.96c-0.09,0.27-0.18,0.54-0.29,0.81
			c-0.09,0.22-0.29,0.36-0.52,0.34C186.94,133.91,186.81,133.7,186.79,133.41z M176.08,130.43c-0.18,0.04-0.22,0.07-0.27,0.09
			l0.02,0.09C175.88,130.58,175.92,130.54,176.08,130.43z M188.69,129.17c-0.2,0.29-0.36,0.61-0.56,0.92
			c-0.16,0.25-0.18,0.52-0.11,0.92C188.47,130.4,188.6,129.78,188.69,129.17z"/>
	</g>
</g>
</svg>
