<svg xmlns="http://www.w3.org/2000/svg" viewBox="0 0 199.21 180.64"><title>Asset 2</title><g id="Layer_2" data-name="Layer 2"><g id="Layer_1-2" data-name="Layer 1"><path d="M199.21,180.64H107.57l44.49-78.43Zm-77.14-8.56h62L152.19,119.5Z"/><path d="M148.58,133h8.07v17h-8.07Z"/><path d="M156.78,159.49v8.18h-8.22v-8.18Z"/><path d="M.1,63.58,0,.25,176.83,0l.09,63.33ZM10,10.24l.06,43.33,156.85-.22L166.85,10Z"/><rect x="21.37" y="19.08" width="18.43" height="10" transform="translate(-0.03 0.04) rotate(-0.08)"/><rect x="44.48" y="19.06" width="9.2" height="10" transform="translate(-0.03 0.07) rotate(-0.08)"/><rect x="146.81" y="36.67" width="9.2" height="10" transform="translate(-0.06 0.21) rotate(-0.08)"/><rect x="58.36" y="19.04" width="9.2" height="10" transform="translate(-0.03 0.09) rotate(-0.08)"/><path d="M.09,117,0,53.62l176.83-.25.09,63.33ZM10,63.61l.06,43.33,156.81-.22-.06-43.33Z"/><rect x="21.37" y="72.46" width="18.43" height="10" transform="translate(-0.11 0.04) rotate(-0.08)"/><rect x="44.48" y="72.43" width="9.2" height="10" transform="translate(-0.1 0.06) rotate(-0.07)"/><rect x="146.81" y="90.05" width="9.2" height="10" transform="translate(-0.12 0.19) rotate(-0.07)"/><rect x="58.36" y="72.41" width="9.2" height="10" transform="translate(-0.11 0.09) rotate(-0.08)"/><path d="M166.87,132.15l0-15.39L10,117,10,160.31l110.64-.16.5,10-121.1.18L0,107l176.83-.25.06,44.09Z"/><rect x="21.37" y="125.83" width="18.43" height="10" transform="translate(-0.18 0.04) rotate(-0.08)"/><rect x="44.48" y="125.8" width="9.2" height="10" transform="translate(-0.18 0.07) rotate(-0.08)"/><rect x="58.36" y="125.78" width="9.2" height="10" transform="translate(-0.18 0.09) rotate(-0.08)"/></g></g></svg>